<?xml version="1.0" standalone="no"?>
<!DOCTYPE svg PUBLIC "-//W3C//DTD SVG 20010904//EN"
 "http://www.w3.org/TR/2001/REC-SVG-20010904/DTD/svg10.dtd">
<svg version="1.0" xmlns="http://www.w3.org/2000/svg"
 width="16.000000pt" height="16.000000pt" viewBox="0 0 16.000000 16.000000"
 preserveAspectRatio="xMidYMid meet">
<metadata>
Created by potrace 1.11, written by Peter Selinger 2001-2013
</metadata>
<g transform="translate(0.000000,16.000000) scale(0.002286,-0.002286)"
fill="#000000" stroke="none">
<path d="M4708 6741 c-5 -14 -18 -48 -28 -76 -9 -27 -33 -93 -53 -145 -19 -52
-48 -131 -65 -175 -16 -44 -226 -611 -467 -1260 -241 -649 -452 -1220 -470
-1270 -18 -49 -135 -364 -260 -700 -124 -335 -267 -720 -316 -855 -50 -135
-93 -252 -96 -260 -4 -8 -7 -17 -8 -20 -1 -3 -5 -12 -8 -20 -4 -8 -23 -60 -42
-115 -20 -55 -39 -103 -43 -107 -4 -4 -34 17 -67 47 -79 72 -73 67 -141 112
-83 57 -122 75 -259 121 -176 60 -252 71 -440 67 -88 -2 -173 -6 -190 -9 -45
-9 -85 -15 -134 -21 -24 -3 -47 -8 -51 -10 -4 -2 -22 -7 -41 -10 -65 -11 -264
-84 -344 -125 -231 -121 -378 -277 -447 -470 -18 -52 -22 -87 -23 -170 0 -112
3 -137 30 -215 75 -222 258 -373 546 -450 121 -32 202 -40 389 -39 270 2 511
61 740 182 183 96 422 334 488 486 7 16 46 117 86 225 41 108 118 313 172 456
53 143 103 276 110 295 7 19 136 366 287 770 151 404 366 978 477 1275 221
594 241 645 249 645 7 0 113 -70 121 -79 3 -4 21 -19 40 -35 221 -179 488
-520 571 -727 27 -70 67 -205 74 -255 3 -21 8 -44 10 -51 18 -55 27 -440 12
-553 -4 -30 -10 -75 -13 -100 -2 -25 -9 -65 -14 -90 -5 -25 -12 -56 -14 -70
-27 -165 -113 -385 -210 -540 -69 -111 -242 -342 -308 -411 -7 -8 -28 -32 -47
-54 -31 -36 -59 -68 -215 -244 -27 -31 -83 -94 -125 -140 -118 -130 -127 -149
-49 -110 65 32 119 79 268 228 165 166 216 222 330 361 24 30 55 66 67 80 47
54 241 324 301 420 170 273 262 532 298 845 13 116 9 295 -12 465 -8 61 -33
191 -60 300 -50 206 -116 400 -327 955 -81 213 -148 414 -161 485 -2 14 -13
61 -22 105 -20 87 -26 359 -11 470 18 132 50 265 89 370 67 180 73 156 -54
203 l-109 40 -11 -27z"/>
</g>
</svg>
